<?xml version="1.0" encoding="UTF-8" standalone="no"?>
<!DOCTYPE svg PUBLIC "-//W3C//DTD SVG 1.1//EN"
 "http://www.w3.org/Graphics/SVG/1.1/DTD/svg11.dtd">
<!-- Generated by graphviz version 2.47.0 (20210316.0004)
 -->
<!-- Title: dependencies Pages: 1 -->
<svg width="2572pt" height="284pt"
 viewBox="0.00 0.00 2572.00 284.00" xmlns="http://www.w3.org/2000/svg" xmlns:xlink="http://www.w3.org/1999/xlink">
<g id="graph0" class="graph" transform="scale(1 1) rotate(0) translate(4 280)">
<title>dependencies</title>
<polygon fill="white" stroke="transparent" points="-4,4 -4,-280 2568,-280 2568,4 -4,4"/>
<text text-anchor="start" x="1261.01" y="-42.4" font-family="Times-12" font-weight="bold" font-size="14.00">Legend</text>
<polygon fill="#ffffb3" stroke="transparent" points="1048,-10 1048,-30 1068,-30 1068,-10 1048,-10"/>
<text text-anchor="start" x="1071.63" y="-15.4" font-family="Times-12" font-size="14.00"> &#160;Declarations</text>
<polygon fill="#8dd3c7" stroke="transparent" points="1161,-10 1161,-30 1181,-30 1181,-10 1161,-10"/>
<text text-anchor="start" x="1184.73" y="-15.4" font-family="Times-12" font-size="14.00"> &#160;Module</text>
<polygon fill="#80b1d3" stroke="transparent" points="1247,-10 1247,-30 1267,-30 1267,-10 1247,-10"/>
<text text-anchor="start" x="1270.78" y="-15.4" font-family="Times-12" font-size="14.00"> &#160;Bootstrap</text>
<polygon fill="#fdb462" stroke="transparent" points="1344,-10 1344,-30 1364,-30 1364,-10 1344,-10"/>
<text text-anchor="start" x="1367.67" y="-15.4" font-family="Times-12" font-size="14.00"> &#160;Providers</text>
<polygon fill="#fb8072" stroke="transparent" points="1440,-10 1440,-30 1460,-30 1460,-10 1440,-10"/>
<text text-anchor="start" x="1463.73" y="-15.4" font-family="Times-12" font-size="14.00"> &#160;Exports</text>
<g id="clust1" class="cluster">
<title>cluster_AppModule</title>
<polygon fill="none" stroke="black" stroke-dasharray="1,5" points="8,-70 8,-268 2556,-268 2556,-70 8,-70"/>
</g>
<g id="clust2" class="cluster">
<title>cluster_AppModule_declarations</title>
<polygon fill="none" stroke="black" points="168,-78 168,-130 2548,-130 2548,-78 168,-78"/>
</g>
<g id="clust17" class="cluster">
<title>cluster_AppModule_imports</title>
<polygon fill="none" stroke="black" points="16,-78 16,-130 160,-130 160,-78 16,-78"/>
</g>
<g id="clust19" class="cluster">
<title>cluster_AppModule_bootstrap</title>
<polygon fill="none" stroke="black" points="1231,-208 1231,-260 1355,-260 1355,-208 1231,-208"/>
</g>
<!-- AddCallRecordComponent -->
<g id="node1" class="node">
<title>AddCallRecordComponent</title>
<polygon fill="#ffffb3" stroke="black" points="2539.7,-122 2370.3,-122 2370.3,-86 2539.7,-86 2539.7,-122"/>
<text text-anchor="middle" x="2455" y="-99.8" font-family="Times,serif" font-size="14.00">AddCallRecordComponent</text>
</g>
<!-- AppModule -->
<g id="node15" class="node">
<title>AppModule</title>
<polygon fill="#8dd3c7" stroke="black" points="1334.66,-187 1331.66,-191 1310.66,-191 1307.66,-187 1251.34,-187 1251.34,-151 1334.66,-151 1334.66,-187"/>
<text text-anchor="middle" x="1293" y="-164.8" font-family="Times,serif" font-size="14.00">AppModule</text>
</g>
<!-- AddCallRecordComponent&#45;&gt;AppModule -->
<g id="edge1" class="edge">
<title>AddCallRecordComponent&#45;&gt;AppModule</title>
<path fill="none" stroke="black" d="M2455,-122.32C2455,-145.66 2455,-183 2455,-183 2455,-183 1344.7,-183 1344.7,-183"/>
<polygon fill="black" stroke="black" points="1344.7,-179.5 1334.7,-183 1344.7,-186.5 1344.7,-179.5"/>
</g>
<!-- AddPlanComponent -->
<g id="node2" class="node">
<title>AddPlanComponent</title>
<polygon fill="#ffffb3" stroke="black" points="2352.33,-122 2221.67,-122 2221.67,-86 2352.33,-86 2352.33,-122"/>
<text text-anchor="middle" x="2287" y="-99.8" font-family="Times,serif" font-size="14.00">AddPlanComponent</text>
</g>
<!-- AddPlanComponent&#45;&gt;AppModule -->
<g id="edge2" class="edge">
<title>AddPlanComponent&#45;&gt;AppModule</title>
<path fill="none" stroke="black" d="M2287,-122.29C2287,-144.21 2287,-178 2287,-178 2287,-178 1344.76,-178 1344.76,-178"/>
<polygon fill="black" stroke="black" points="1344.76,-174.5 1334.76,-178 1344.76,-181.5 1344.76,-174.5"/>
</g>
<!-- AddSmsRecordComponent -->
<g id="node3" class="node">
<title>AddSmsRecordComponent</title>
<polygon fill="#ffffb3" stroke="black" points="2203.98,-122 2034.02,-122 2034.02,-86 2203.98,-86 2203.98,-122"/>
<text text-anchor="middle" x="2119" y="-99.8" font-family="Times,serif" font-size="14.00">AddSmsRecordComponent</text>
</g>
<!-- AddSmsRecordComponent&#45;&gt;AppModule -->
<g id="edge3" class="edge">
<title>AddSmsRecordComponent&#45;&gt;AppModule</title>
<path fill="none" stroke="black" d="M2119,-122.03C2119,-142.77 2119,-174 2119,-174 2119,-174 1344.81,-174 1344.81,-174"/>
<polygon fill="black" stroke="black" points="1344.81,-170.5 1334.81,-174 1344.81,-177.5 1344.81,-170.5"/>
</g>
<!-- AppComponent -->
<g id="node4" class="node">
<title>AppComponent</title>
<polygon fill="#ffffb3" stroke="black" points="2015.94,-122 1910.06,-122 1910.06,-86 2015.94,-86 2015.94,-122"/>
<text text-anchor="middle" x="1963" y="-99.8" font-family="Times,serif" font-size="14.00">AppComponent</text>
</g>
<!-- AppComponent&#45;&gt;AppModule -->
<g id="edge4" class="edge">
<title>AppComponent&#45;&gt;AppModule</title>
<path fill="none" stroke="black" d="M1963,-122.11C1963,-141.34 1963,-169 1963,-169 1963,-169 1344.66,-169 1344.66,-169"/>
<polygon fill="black" stroke="black" points="1344.66,-165.5 1334.66,-169 1344.66,-172.5 1344.66,-165.5"/>
</g>
<!-- CallRecordsChartComponent -->
<g id="node5" class="node">
<title>CallRecordsChartComponent</title>
<polygon fill="#ffffb3" stroke="black" points="1891.64,-122 1710.36,-122 1710.36,-86 1891.64,-86 1891.64,-122"/>
<text text-anchor="middle" x="1801" y="-99.8" font-family="Times,serif" font-size="14.00">CallRecordsChartComponent</text>
</g>
<!-- CallRecordsChartComponent&#45;&gt;AppModule -->
<g id="edge5" class="edge">
<title>CallRecordsChartComponent&#45;&gt;AppModule</title>
<path fill="none" stroke="black" d="M1801,-122.3C1801,-140.27 1801,-165 1801,-165 1801,-165 1345,-165 1345,-165"/>
<polygon fill="black" stroke="black" points="1345,-161.5 1335,-165 1345,-168.5 1345,-161.5"/>
</g>
<!-- CallRecordsComponent -->
<g id="node6" class="node">
<title>CallRecordsComponent</title>
<polygon fill="#ffffb3" stroke="black" points="1692.04,-122 1541.96,-122 1541.96,-86 1692.04,-86 1692.04,-122"/>
<text text-anchor="middle" x="1617" y="-99.8" font-family="Times,serif" font-size="14.00">CallRecordsComponent</text>
</g>
<!-- CallRecordsComponent&#45;&gt;AppModule -->
<g id="edge6" class="edge">
<title>CallRecordsComponent&#45;&gt;AppModule</title>
<path fill="none" stroke="black" d="M1617,-122.03C1617,-138.4 1617,-160 1617,-160 1617,-160 1344.69,-160 1344.69,-160"/>
<polygon fill="black" stroke="black" points="1344.69,-156.5 1334.69,-160 1344.69,-163.5 1344.69,-156.5"/>
</g>
<!-- DashboardComponent -->
<g id="node7" class="node">
<title>DashboardComponent</title>
<polygon fill="#ffffb3" stroke="black" points="1523.97,-122 1382.03,-122 1382.03,-86 1523.97,-86 1523.97,-122"/>
<text text-anchor="middle" x="1453" y="-99.8" font-family="Times,serif" font-size="14.00">DashboardComponent</text>
</g>
<!-- DashboardComponent&#45;&gt;AppModule -->
<g id="edge7" class="edge">
<title>DashboardComponent&#45;&gt;AppModule</title>
<path fill="none" stroke="black" d="M1453,-122.19C1453,-137.18 1453,-156 1453,-156 1453,-156 1345.04,-156 1345.04,-156"/>
<polygon fill="black" stroke="black" points="1345.04,-152.5 1335.04,-156 1345.04,-159.5 1345.04,-152.5"/>
</g>
<!-- DataUsageComponent -->
<g id="node8" class="node">
<title>DataUsageComponent</title>
<polygon fill="#ffffb3" stroke="black" points="1364.24,-122 1221.76,-122 1221.76,-86 1364.24,-86 1364.24,-122"/>
<text text-anchor="middle" x="1293" y="-99.8" font-family="Times,serif" font-size="14.00">DataUsageComponent</text>
</g>
<!-- DataUsageComponent&#45;&gt;AppModule -->
<g id="edge8" class="edge">
<title>DataUsageComponent&#45;&gt;AppModule</title>
<path fill="none" stroke="black" d="M1293,-122.11C1293,-122.11 1293,-140.99 1293,-140.99"/>
<polygon fill="black" stroke="black" points="1289.5,-140.99 1293,-150.99 1296.5,-140.99 1289.5,-140.99"/>
</g>
<!-- EditPlanComponent -->
<g id="node9" class="node">
<title>EditPlanComponent</title>
<polygon fill="#ffffb3" stroke="black" points="1203.55,-122 1074.45,-122 1074.45,-86 1203.55,-86 1203.55,-122"/>
<text text-anchor="middle" x="1139" y="-99.8" font-family="Times,serif" font-size="14.00">EditPlanComponent</text>
</g>
<!-- EditPlanComponent&#45;&gt;AppModule -->
<g id="edge9" class="edge">
<title>EditPlanComponent&#45;&gt;AppModule</title>
<path fill="none" stroke="black" d="M1139,-122.19C1139,-137.18 1139,-156 1139,-156 1139,-156 1241.33,-156 1241.33,-156"/>
<polygon fill="black" stroke="black" points="1241.33,-159.5 1251.33,-156 1241.33,-152.5 1241.33,-159.5"/>
</g>
<!-- PlansComponent -->
<g id="node10" class="node">
<title>PlansComponent</title>
<polygon fill="#ffffb3" stroke="black" points="1055.67,-122 944.33,-122 944.33,-86 1055.67,-86 1055.67,-122"/>
<text text-anchor="middle" x="1000" y="-99.8" font-family="Times,serif" font-size="14.00">PlansComponent</text>
</g>
<!-- PlansComponent&#45;&gt;AppModule -->
<g id="edge10" class="edge">
<title>PlansComponent&#45;&gt;AppModule</title>
<path fill="none" stroke="black" d="M1000,-122.03C1000,-138.4 1000,-160 1000,-160 1000,-160 1241.33,-160 1241.33,-160"/>
<polygon fill="black" stroke="black" points="1241.33,-163.5 1251.33,-160 1241.33,-156.5 1241.33,-163.5"/>
</g>
<!-- SmsRecordsChartComponent -->
<g id="node11" class="node">
<title>SmsRecordsChartComponent</title>
<polygon fill="#ffffb3" stroke="black" points="926.42,-122 743.58,-122 743.58,-86 926.42,-86 926.42,-122"/>
<text text-anchor="middle" x="835" y="-99.8" font-family="Times,serif" font-size="14.00">SmsRecordsChartComponent</text>
</g>
<!-- SmsRecordsChartComponent&#45;&gt;AppModule -->
<g id="edge11" class="edge">
<title>SmsRecordsChartComponent&#45;&gt;AppModule</title>
<path fill="none" stroke="black" d="M835,-122.3C835,-140.27 835,-165 835,-165 835,-165 1241.14,-165 1241.14,-165"/>
<polygon fill="black" stroke="black" points="1241.14,-168.5 1251.14,-165 1241.14,-161.5 1241.14,-168.5"/>
</g>
<!-- SmsRecordsComponent -->
<g id="node12" class="node">
<title>SmsRecordsComponent</title>
<polygon fill="#ffffb3" stroke="black" points="725.82,-122 574.18,-122 574.18,-86 725.82,-86 725.82,-122"/>
<text text-anchor="middle" x="650" y="-99.8" font-family="Times,serif" font-size="14.00">SmsRecordsComponent</text>
</g>
<!-- SmsRecordsComponent&#45;&gt;AppModule -->
<g id="edge12" class="edge">
<title>SmsRecordsComponent&#45;&gt;AppModule</title>
<path fill="none" stroke="black" d="M650,-122.11C650,-141.34 650,-169 650,-169 650,-169 1241.31,-169 1241.31,-169"/>
<polygon fill="black" stroke="black" points="1241.31,-172.5 1251.31,-169 1241.31,-165.5 1241.31,-172.5"/>
</g>
<!-- SubscriberUsageDetailsComponent -->
<g id="node13" class="node">
<title>SubscriberUsageDetailsComponent</title>
<polygon fill="#ffffb3" stroke="black" points="555.83,-122 340.17,-122 340.17,-86 555.83,-86 555.83,-122"/>
<text text-anchor="middle" x="448" y="-99.8" font-family="Times,serif" font-size="14.00">SubscriberUsageDetailsComponent</text>
</g>
<!-- SubscriberUsageDetailsComponent&#45;&gt;AppModule -->
<g id="edge13" class="edge">
<title>SubscriberUsageDetailsComponent&#45;&gt;AppModule</title>
<path fill="none" stroke="black" d="M448,-122.03C448,-142.77 448,-174 448,-174 448,-174 1241.1,-174 1241.1,-174"/>
<polygon fill="black" stroke="black" points="1241.1,-177.5 1251.1,-174 1241.1,-170.5 1241.1,-177.5"/>
</g>
<!-- SubscribersComponent -->
<g id="node14" class="node">
<title>SubscribersComponent</title>
<polygon fill="#ffffb3" stroke="black" points="322.15,-122 175.85,-122 175.85,-86 322.15,-86 322.15,-122"/>
<text text-anchor="middle" x="249" y="-99.8" font-family="Times,serif" font-size="14.00">SubscribersComponent</text>
</g>
<!-- SubscribersComponent&#45;&gt;AppModule -->
<g id="edge14" class="edge">
<title>SubscribersComponent&#45;&gt;AppModule</title>
<path fill="none" stroke="black" d="M249,-122.29C249,-144.21 249,-178 249,-178 249,-178 1241.11,-178 1241.11,-178"/>
<polygon fill="black" stroke="black" points="1241.11,-181.5 1251.11,-178 1241.11,-174.5 1241.11,-181.5"/>
</g>
<!-- AppComponent  -->
<g id="node17" class="node">
<title>AppComponent </title>
<polygon fill="#80b1d3" stroke="black" points="1347.44,-252 1238.56,-252 1238.56,-216 1347.44,-216 1347.44,-252"/>
<text text-anchor="middle" x="1293" y="-229.8" font-family="Times,serif" font-size="14.00">AppComponent </text>
</g>
<!-- AppModule&#45;&gt;AppComponent  -->
<g id="edge16" class="edge">
<title>AppModule&#45;&gt;AppComponent </title>
<path fill="none" stroke="black" stroke-dasharray="1,5" d="M1293,-187.11C1293,-187.11 1293,-205.99 1293,-205.99"/>
<polygon fill="black" stroke="black" points="1289.5,-205.99 1293,-215.99 1296.5,-205.99 1289.5,-205.99"/>
</g>
<!-- AppRoutingModule -->
<g id="node16" class="node">
<title>AppRoutingModule</title>
<polygon fill="#8dd3c7" stroke="black" points="152.27,-122 149.27,-126 128.27,-126 125.27,-122 23.73,-122 23.73,-86 152.27,-86 152.27,-122"/>
<text text-anchor="middle" x="88" y="-99.8" font-family="Times,serif" font-size="14.00">AppRoutingModule</text>
</g>
<!-- AppRoutingModule&#45;&gt;AppModule -->
<g id="edge15" class="edge">
<title>AppRoutingModule&#45;&gt;AppModule</title>
<path fill="none" stroke="black" d="M88,-122.32C88,-145.66 88,-183 88,-183 88,-183 1241.17,-183 1241.17,-183"/>
<polygon fill="black" stroke="black" points="1241.17,-186.5 1251.17,-183 1241.17,-179.5 1241.17,-186.5"/>
</g>
</g>
</svg>
