<?xml version="1.0" encoding="UTF-8" standalone="no"?>
<!DOCTYPE svg PUBLIC "-//W3C//DTD SVG 1.1//EN"
 "http://www.w3.org/Graphics/SVG/1.1/DTD/svg11.dtd">
<!-- Generated by graphviz version 2.47.0 (20210316.0004)
 -->
<!-- Title: dependencies Pages: 1 -->
<svg width="2572pt" height="284pt"
 viewBox="0.00 0.00 2572.00 284.00" xmlns="http://www.w3.org/2000/svg" xmlns:xlink="http://www.w3.org/1999/xlink">
<g id="graph0" class="graph" transform="scale(1 1) rotate(0) translate(4 280)">
<title>dependencies</title>
<polygon fill="white" stroke="transparent" points="-4,4 -4,-280 2568,-280 2568,4 -4,4"/>
<text text-anchor="start" x="1261.01" y="-42.4" font-family="Times-12" font-weight="bold" font-size="14.00">Legend</text>
<polygon fill="#ffffb3" stroke="transparent" points="1048,-10 1048,-30 1068,-30 1068,-10 1048,-10"/>
<text text-anchor="start" x="1071.63" y="-15.4" font-family="Times-12" font-size="14.00"> &#160;Declarations</text>
<polygon fill="#8dd3c7" stroke="transparent" points="1161,-10 1161,-30 1181,-30 1181,-10 1161,-10"/>
<text text-anchor="start" x="1184.73" y="-15.4" font-family="Times-12" font-size="14.00"> &#160;Module</text>
<polygon fill="#80b1d3" stroke="transparent" points="1247,-10 1247,-30 1267,-30 1267,-10 1247,-10"/>
<text text-anchor="start" x="1270.78" y="-15.4" font-family="Times-12" font-size="14.00"> &#160;Bootstrap</text>
<polygon fill="#fdb462" stroke="transparent" points="1344,-10 1344,-30 1364,-30 1364,-10 1344,-10"/>
<text text-anchor="start" x="1367.67" y="-15.4" font-family="Times-12" font-size="14.00"> &#160;Providers</text>
<polygon fill="#fb8072" stroke="transparent" points="1440,-10 1440,-30 1460,-30 1460,-10 1440,-10"/>
<text text-anchor="start" x="1463.73" y="-15.4" font-family="Times-12" font-size="14.00"> &#160;Exports</text>
<g id="clust1" class="cluster">
<title>cluster_AppModule</title>
<polygon fill="none" stroke="black" stroke-dasharray="1,5" points="8,-70 8,-268 2556,-268 2556,-70 8,-70"/>
</g>
<g id="clust19" class="cluster">
<title>cluster_AppModule_bootstrap</title>
<polygon fill="none" stroke="black" points="1239,-208 1239,-260 1363,-260 1363,-208 1239,-208"/>
</g>
<g id="clust17" class="cluster">
<title>cluster_AppModule_imports</title>
<polygon fill="none" stroke="black" points="2404,-78 2404,-130 2548,-130 2548,-78 2404,-78"/>
</g>
<g id="clust2" class="cluster">
<title>cluster_AppModule_declarations</title>
<polygon fill="none" stroke="black" points="16,-78 16,-130 2396,-130 2396,-78 16,-78"/>
</g>
<!-- AddCallRecordComponent -->
<g id="node1" class="node">
<title>AddCallRecordComponent</title>
<polygon fill="#ffffb3" stroke="black" points="2387.7,-122 2218.3,-122 2218.3,-86 2387.7,-86 2387.7,-122"/>
<text text-anchor="middle" x="2303" y="-99.8" font-family="Times,serif" font-size="14.00">AddCallRecordComponent</text>
</g>
<!-- AppModule -->
<g id="node15" class="node">
<title>AppModule</title>
<polygon fill="#8dd3c7" stroke="black" points="1342.66,-187 1339.66,-191 1318.66,-191 1315.66,-187 1259.34,-187 1259.34,-151 1342.66,-151 1342.66,-187"/>
<text text-anchor="middle" x="1301" y="-164.8" font-family="Times,serif" font-size="14.00">AppModule</text>
</g>
<!-- AddCallRecordComponent&#45;&gt;AppModule -->
<g id="edge1" class="edge">
<title>AddCallRecordComponent&#45;&gt;AppModule</title>
<path fill="none" stroke="black" d="M2303,-122.29C2303,-144.21 2303,-178 2303,-178 2303,-178 1352.78,-178 1352.78,-178"/>
<polygon fill="black" stroke="black" points="1352.78,-174.5 1342.78,-178 1352.78,-181.5 1352.78,-174.5"/>
</g>
<!-- AddPlanComponent -->
<g id="node2" class="node">
<title>AddPlanComponent</title>
<polygon fill="#ffffb3" stroke="black" points="2200.33,-122 2069.67,-122 2069.67,-86 2200.33,-86 2200.33,-122"/>
<text text-anchor="middle" x="2135" y="-99.8" font-family="Times,serif" font-size="14.00">AddPlanComponent</text>
</g>
<!-- AddPlanComponent&#45;&gt;AppModule -->
<g id="edge2" class="edge">
<title>AddPlanComponent&#45;&gt;AppModule</title>
<path fill="none" stroke="black" d="M2135,-122.03C2135,-142.77 2135,-174 2135,-174 2135,-174 1352.93,-174 1352.93,-174"/>
<polygon fill="black" stroke="black" points="1352.93,-170.5 1342.93,-174 1352.93,-177.5 1352.93,-170.5"/>
</g>
<!-- AddSmsRecordComponent -->
<g id="node3" class="node">
<title>AddSmsRecordComponent</title>
<polygon fill="#ffffb3" stroke="black" points="2051.98,-122 1882.02,-122 1882.02,-86 2051.98,-86 2051.98,-122"/>
<text text-anchor="middle" x="1967" y="-99.8" font-family="Times,serif" font-size="14.00">AddSmsRecordComponent</text>
</g>
<!-- AddSmsRecordComponent&#45;&gt;AppModule -->
<g id="edge3" class="edge">
<title>AddSmsRecordComponent&#45;&gt;AppModule</title>
<path fill="none" stroke="black" d="M1967,-122.11C1967,-141.34 1967,-169 1967,-169 1967,-169 1352.66,-169 1352.66,-169"/>
<polygon fill="black" stroke="black" points="1352.66,-165.5 1342.66,-169 1352.66,-172.5 1352.66,-165.5"/>
</g>
<!-- AppComponent -->
<g id="node4" class="node">
<title>AppComponent</title>
<polygon fill="#ffffb3" stroke="black" points="1863.94,-122 1758.06,-122 1758.06,-86 1863.94,-86 1863.94,-122"/>
<text text-anchor="middle" x="1811" y="-99.8" font-family="Times,serif" font-size="14.00">AppComponent</text>
</g>
<!-- AppComponent&#45;&gt;AppModule -->
<g id="edge4" class="edge">
<title>AppComponent&#45;&gt;AppModule</title>
<path fill="none" stroke="black" d="M1811,-122.3C1811,-140.27 1811,-165 1811,-165 1811,-165 1352.74,-165 1352.74,-165"/>
<polygon fill="black" stroke="black" points="1352.74,-161.5 1342.74,-165 1352.74,-168.5 1352.74,-161.5"/>
</g>
<!-- CallRecordsChartComponent -->
<g id="node5" class="node">
<title>CallRecordsChartComponent</title>
<polygon fill="#ffffb3" stroke="black" points="1739.64,-122 1558.36,-122 1558.36,-86 1739.64,-86 1739.64,-122"/>
<text text-anchor="middle" x="1649" y="-99.8" font-family="Times,serif" font-size="14.00">CallRecordsChartComponent</text>
</g>
<!-- CallRecordsChartComponent&#45;&gt;AppModule -->
<g id="edge5" class="edge">
<title>CallRecordsChartComponent&#45;&gt;AppModule</title>
<path fill="none" stroke="black" d="M1649,-122.03C1649,-138.4 1649,-160 1649,-160 1649,-160 1352.98,-160 1352.98,-160"/>
<polygon fill="black" stroke="black" points="1352.98,-156.5 1342.98,-160 1352.98,-163.5 1352.98,-156.5"/>
</g>
<!-- CallRecordsComponent -->
<g id="node6" class="node">
<title>CallRecordsComponent</title>
<polygon fill="#ffffb3" stroke="black" points="1540.04,-122 1389.96,-122 1389.96,-86 1540.04,-86 1540.04,-122"/>
<text text-anchor="middle" x="1465" y="-99.8" font-family="Times,serif" font-size="14.00">CallRecordsComponent</text>
</g>
<!-- CallRecordsComponent&#45;&gt;AppModule -->
<g id="edge6" class="edge">
<title>CallRecordsComponent&#45;&gt;AppModule</title>
<path fill="none" stroke="black" d="M1465,-122.19C1465,-137.18 1465,-156 1465,-156 1465,-156 1352.81,-156 1352.81,-156"/>
<polygon fill="black" stroke="black" points="1352.81,-152.5 1342.81,-156 1352.81,-159.5 1352.81,-152.5"/>
</g>
<!-- DashboardComponent -->
<g id="node7" class="node">
<title>DashboardComponent</title>
<polygon fill="#ffffb3" stroke="black" points="1371.97,-122 1230.03,-122 1230.03,-86 1371.97,-86 1371.97,-122"/>
<text text-anchor="middle" x="1301" y="-99.8" font-family="Times,serif" font-size="14.00">DashboardComponent</text>
</g>
<!-- DashboardComponent&#45;&gt;AppModule -->
<g id="edge7" class="edge">
<title>DashboardComponent&#45;&gt;AppModule</title>
<path fill="none" stroke="black" d="M1301,-122.11C1301,-122.11 1301,-140.99 1301,-140.99"/>
<polygon fill="black" stroke="black" points="1297.5,-140.99 1301,-150.99 1304.5,-140.99 1297.5,-140.99"/>
</g>
<!-- DataUsageComponent -->
<g id="node8" class="node">
<title>DataUsageComponent</title>
<polygon fill="#ffffb3" stroke="black" points="1212.24,-122 1069.76,-122 1069.76,-86 1212.24,-86 1212.24,-122"/>
<text text-anchor="middle" x="1141" y="-99.8" font-family="Times,serif" font-size="14.00">DataUsageComponent</text>
</g>
<!-- DataUsageComponent&#45;&gt;AppModule -->
<g id="edge8" class="edge">
<title>DataUsageComponent&#45;&gt;AppModule</title>
<path fill="none" stroke="black" d="M1141,-122.19C1141,-137.18 1141,-156 1141,-156 1141,-156 1248.96,-156 1248.96,-156"/>
<polygon fill="black" stroke="black" points="1248.96,-159.5 1258.96,-156 1248.96,-152.5 1248.96,-159.5"/>
</g>
<!-- EditPlanComponent -->
<g id="node9" class="node">
<title>EditPlanComponent</title>
<polygon fill="#ffffb3" stroke="black" points="1051.55,-122 922.45,-122 922.45,-86 1051.55,-86 1051.55,-122"/>
<text text-anchor="middle" x="987" y="-99.8" font-family="Times,serif" font-size="14.00">EditPlanComponent</text>
</g>
<!-- EditPlanComponent&#45;&gt;AppModule -->
<g id="edge9" class="edge">
<title>EditPlanComponent&#45;&gt;AppModule</title>
<path fill="none" stroke="black" d="M987,-122.03C987,-138.4 987,-160 987,-160 987,-160 1249.3,-160 1249.3,-160"/>
<polygon fill="black" stroke="black" points="1249.3,-163.5 1259.3,-160 1249.3,-156.5 1249.3,-163.5"/>
</g>
<!-- PlansComponent -->
<g id="node10" class="node">
<title>PlansComponent</title>
<polygon fill="#ffffb3" stroke="black" points="903.67,-122 792.33,-122 792.33,-86 903.67,-86 903.67,-122"/>
<text text-anchor="middle" x="848" y="-99.8" font-family="Times,serif" font-size="14.00">PlansComponent</text>
</g>
<!-- PlansComponent&#45;&gt;AppModule -->
<g id="edge10" class="edge">
<title>PlansComponent&#45;&gt;AppModule</title>
<path fill="none" stroke="black" d="M848,-122.3C848,-140.27 848,-165 848,-165 848,-165 1249.19,-165 1249.19,-165"/>
<polygon fill="black" stroke="black" points="1249.19,-168.5 1259.19,-165 1249.19,-161.5 1249.19,-168.5"/>
</g>
<!-- SmsRecordsChartComponent -->
<g id="node11" class="node">
<title>SmsRecordsChartComponent</title>
<polygon fill="#ffffb3" stroke="black" points="774.42,-122 591.58,-122 591.58,-86 774.42,-86 774.42,-122"/>
<text text-anchor="middle" x="683" y="-99.8" font-family="Times,serif" font-size="14.00">SmsRecordsChartComponent</text>
</g>
<!-- SmsRecordsChartComponent&#45;&gt;AppModule -->
<g id="edge11" class="edge">
<title>SmsRecordsChartComponent&#45;&gt;AppModule</title>
<path fill="none" stroke="black" d="M683,-122.11C683,-141.34 683,-169 683,-169 683,-169 1249.01,-169 1249.01,-169"/>
<polygon fill="black" stroke="black" points="1249.01,-172.5 1259.01,-169 1249.01,-165.5 1249.01,-172.5"/>
</g>
<!-- SmsRecordsComponent -->
<g id="node12" class="node">
<title>SmsRecordsComponent</title>
<polygon fill="#ffffb3" stroke="black" points="573.82,-122 422.18,-122 422.18,-86 573.82,-86 573.82,-122"/>
<text text-anchor="middle" x="498" y="-99.8" font-family="Times,serif" font-size="14.00">SmsRecordsComponent</text>
</g>
<!-- SmsRecordsComponent&#45;&gt;AppModule -->
<g id="edge12" class="edge">
<title>SmsRecordsComponent&#45;&gt;AppModule</title>
<path fill="none" stroke="black" d="M498,-122.03C498,-142.77 498,-174 498,-174 498,-174 1249.24,-174 1249.24,-174"/>
<polygon fill="black" stroke="black" points="1249.24,-177.5 1259.24,-174 1249.24,-170.5 1249.24,-177.5"/>
</g>
<!-- SubscriberUsageDetailsComponent -->
<g id="node13" class="node">
<title>SubscriberUsageDetailsComponent</title>
<polygon fill="#ffffb3" stroke="black" points="403.83,-122 188.17,-122 188.17,-86 403.83,-86 403.83,-122"/>
<text text-anchor="middle" x="296" y="-99.8" font-family="Times,serif" font-size="14.00">SubscriberUsageDetailsComponent</text>
</g>
<!-- SubscriberUsageDetailsComponent&#45;&gt;AppModule -->
<g id="edge13" class="edge">
<title>SubscriberUsageDetailsComponent&#45;&gt;AppModule</title>
<path fill="none" stroke="black" d="M296,-122.29C296,-144.21 296,-178 296,-178 296,-178 1249.1,-178 1249.1,-178"/>
<polygon fill="black" stroke="black" points="1249.1,-181.5 1259.1,-178 1249.1,-174.5 1249.1,-181.5"/>
</g>
<!-- SubscribersComponent -->
<g id="node14" class="node">
<title>SubscribersComponent</title>
<polygon fill="#ffffb3" stroke="black" points="170.15,-122 23.85,-122 23.85,-86 170.15,-86 170.15,-122"/>
<text text-anchor="middle" x="97" y="-99.8" font-family="Times,serif" font-size="14.00">SubscribersComponent</text>
</g>
<!-- SubscribersComponent&#45;&gt;AppModule -->
<g id="edge14" class="edge">
<title>SubscribersComponent&#45;&gt;AppModule</title>
<path fill="none" stroke="black" d="M97,-122.32C97,-145.66 97,-183 97,-183 97,-183 1249.21,-183 1249.21,-183"/>
<polygon fill="black" stroke="black" points="1249.21,-186.5 1259.21,-183 1249.21,-179.5 1249.21,-186.5"/>
</g>
<!-- AppComponent  -->
<g id="node17" class="node">
<title>AppComponent </title>
<polygon fill="#80b1d3" stroke="black" points="1355.44,-252 1246.56,-252 1246.56,-216 1355.44,-216 1355.44,-252"/>
<text text-anchor="middle" x="1301" y="-229.8" font-family="Times,serif" font-size="14.00">AppComponent </text>
</g>
<!-- AppModule&#45;&gt;AppComponent  -->
<g id="edge16" class="edge">
<title>AppModule&#45;&gt;AppComponent </title>
<path fill="none" stroke="black" stroke-dasharray="1,5" d="M1301,-187.11C1301,-187.11 1301,-205.99 1301,-205.99"/>
<polygon fill="black" stroke="black" points="1297.5,-205.99 1301,-215.99 1304.5,-205.99 1297.5,-205.99"/>
</g>
<!-- AppRoutingModule -->
<g id="node16" class="node">
<title>AppRoutingModule</title>
<polygon fill="#8dd3c7" stroke="black" points="2540.27,-122 2537.27,-126 2516.27,-126 2513.27,-122 2411.73,-122 2411.73,-86 2540.27,-86 2540.27,-122"/>
<text text-anchor="middle" x="2476" y="-99.8" font-family="Times,serif" font-size="14.00">AppRoutingModule</text>
</g>
<!-- AppRoutingModule&#45;&gt;AppModule -->
<g id="edge15" class="edge">
<title>AppRoutingModule&#45;&gt;AppModule</title>
<path fill="none" stroke="black" d="M2476,-122.32C2476,-145.66 2476,-183 2476,-183 2476,-183 1352.82,-183 1352.82,-183"/>
<polygon fill="black" stroke="black" points="1352.82,-179.5 1342.82,-183 1352.82,-186.5 1352.82,-179.5"/>
</g>
</g>
</svg>
